# xmcd
#
# Track frame offsets:
# 150
# 14272
# 27920
# 52156
# 75772
# 94069
# 110254
# 127144
# 155701
# 173402
# 192600
# 208426
# 224799
# 240549
# 263926
# 282545
# 303542
# 326482
#
# Disc length: 4585 seconds
#
# Revision: 1
# Processed by: cddbd v1.5.2PL0 Copyright (c) Steve Scherf et al.
# Submitted via: CedeCatalogueitor 2.6.0.6 http://personales.ya.com/cdcatalogueitor
#
DISCID=0f11e712
DTITLE=Curtis Mayfield - The Singles Collection
DYEAR=1900
DGENRE=
TTITLE0=Superfly - Single Version
TTITLE1=Move On Up - Live Edited Version
TTITLE2=Freddie's Dead
TTITLE3=(Don't Worry) If There's A Hell Below We're All Going To Go
TTITLE4=A Heavy Dude
TTITLE5=You're So Good To Me - Single Version
TTITLE6=Show Me Love
TTITLE7=It's Lovin' Time (Your Baby's Sensation)
TTITLE8=We've Only Just Begun
TTITLE9=Give Me Your Love
TTITLE10=Never Stop Loving Me
TTITLE11=You Are You
TTITLE12=Only You Babe - Single Edit
TTITLE13=So In Love
TTITLE14=We Got To Have Peace
TTITLE15=Something To Believe In
TTITLE16=If You Need Me
TTITLE17=Tripping Out
EXTD=
EXTT0=
EXTT1=
EXTT2=
EXTT3=
EXTT4=
EXTT5=
EXTT6=
EXTT7=
EXTT8=
EXTT9=
EXTT10=
EXTT11=
EXTT12=
EXTT13=
EXTT14=
EXTT15=
EXTT16=
EXTT17=
PLAYORDER=
